<svg xmlns="http://www.w3.org/2000/svg" xmlns:xlink="http://www.w3.org/1999/xlink" width="245.358" height="438.629" viewBox="0 0 245.358 438.629"><defs><clipPath id="a"><rect width="245.358" height="438.629" transform="translate(438.075 879.212)" fill="none"/></clipPath><clipPath id="b"><rect width="65535" height="65535" transform="translate(-32768 -27097.711)" fill="none"/></clipPath></defs><g transform="translate(-438.075 -879.212)"><g clip-path="url(#a)"><g style="isolation:isolate"><g clip-path="url(#b)"><path d="M550.248,1287.06h-.6v-72.83h-88.82v-37.21h36.38v-37.09h36.85v-36.61h36.85v-37.09h61.42v-19.95h-82.68v-.3l1.6-156.83h.59l-1.59,156.53h82.68v21.15h-61.42v37.09h-36.85v36.61h-36.85v37.09h-36.38v36.01h88.82Z" fill="#00c081"/><path d="M551.548,890.35a1.2,1.2,0,1,0-1.2-1.2,1.19,1.19,0,0,0,1.2,1.2" fill="#00c081"/><path d="M549.948,1287.36a.9.9,0,1,0,.9.9.9.9,0,0,0-.9-.9m0,2.4a1.5,1.5,0,1,1,1.5-1.5,1.5,1.5,0,0,1-1.5,1.5" fill="#00c081"/></g></g></g></g></svg>