<svg xmlns="http://www.w3.org/2000/svg" xmlns:xlink="http://www.w3.org/1999/xlink" width="264.379" height="558.898" viewBox="0 0 264.379 558.898"><defs><clipPath id="a"><rect width="264.379" height="558.898" transform="translate(398.388 180.943)" fill="none"/></clipPath><clipPath id="b"><rect width="65535" height="65535" transform="translate(-32768 -27097.711)" fill="none"/></clipPath></defs><g transform="translate(-398.388 -180.943)"><g clip-path="url(#a)"><g style="isolation:isolate"><g clip-path="url(#b)"><path d="M451.853,294.417h97.531V262.806H451.853Zm81.025,85.026h31.11V340.73h-14.1v18.907H532.878Zm-23.207,25.908h77.124V315.522H549.984V340.13h14.7v39.913h-32.31V359.037h17.005V340.73H509.671Zm-30.11,25.208H613.6V295.016h-63.82v19.906H587.2v91.029H508.871V340.03h40.212V315.422H479.361Zm-57.818,51.917h125.84l.1-25.309H451.152V295.116H421.743Zm126.54,0h91.229V262.806H549.984v31.611H614.4V431.059H478.961V314.922h70.323V295.016H451.753V456.467h96.53v26.009Zm-.4,68.021h-.6l.3-67.421H421.143V294.417h30.009V262.2h98.132V190.883h.6V262.2h90.128V483.076H548.183Z" fill="#00c081"/><path d="M549.584,192.083a1.2,1.2,0,1,0-1.2-1.2,1.216,1.216,0,0,0,1.2,1.2" fill="#00c081"/><path d="M547.583,550.8a.9.9,0,1,0,.9.9.9.9,0,0,0-.9-.9m0,2.4a1.5,1.5,0,1,1,1.5-1.5,1.473,1.473,0,0,1-1.5,1.5" fill="#00c081"/></g></g></g></g></svg>