<svg xmlns="http://www.w3.org/2000/svg" xmlns:xlink="http://www.w3.org/1999/xlink" width="225.142" height="47.647" viewBox="0 0 225.142 47.647">
  <defs>
    <style>
      .cls-1 {
        fill: none;
      }

      .cls-2 {
        clip-path: url(#clip-path);
      }

      .cls-3 {
        fill: #65bd84;
      }

      .cls-4 {
        fill: #fff;
      }
    </style>
    <clipPath id="clip-path">
      <rect id="Rectangle_9" data-name="Rectangle 9" class="cls-1" width="225.142" height="47.647" transform="translate(131.791 2417.926)"/>
    </clipPath>
  </defs>
  <g id="Group_12" data-name="Group 12" transform="translate(-131.791 -2417.926)">
    <g id="Group_11" data-name="Group 11" class="cls-2">
      <path id="Path_7" data-name="Path 7" class="cls-3" d="M317.036,2417.928c.669,0,1.237,0,1.8,0,.248,0,.294.051.253.308-.09.576-.181,1.153-.3,1.724a15.666,15.666,0,0,1-1.589,4.359,11.083,11.083,0,0,1-7.606,5.626,15.756,15.756,0,0,1-4.435.284c-.283-.015-.564-.065-.846-.1a.268.268,0,0,1-.259-.2,9.99,9.99,0,0,1-.149-5.243,7.165,7.165,0,0,1,2.912-4.009,12.078,12.078,0,0,1,3.081-1.542,21.646,21.646,0,0,1,4.092-.946c1.044-.147,2.094-.2,3.044-.267"/>
      <path id="Path_8" data-name="Path 8" class="cls-3" d="M294.5,2428.839a18.368,18.368,0,1,0,18.3,18.4,18.377,18.377,0,0,0-18.3-18.4m-.069,27.521a9.16,9.16,0,1,1,9.168-9.141,9.176,9.176,0,0,1-9.168,9.141"/>
      <path id="Path_9" data-name="Path 9" class="cls-4" d="M194.357,2428.84a18.363,18.363,0,1,0,18.346,18.411,18.4,18.4,0,0,0-18.346-18.411m-.023,27.522a9.161,9.161,0,1,1,9.163-9.153,9.193,9.193,0,0,1-9.163,9.153"/>
      <rect id="Rectangle_8" data-name="Rectangle 8" class="cls-4" width="9.204" height="36.764" transform="translate(256.553 2428.816)"/>
      <path id="Path_10" data-name="Path 10" class="cls-4" d="M232.313,2457.212v-28.4h-9.2v36.764h23.1v-8.367Z"/>
      <path id="Path_11" data-name="Path 11" class="cls-4" d="M156.38,2428.816V2442.6H141v-13.781h-9.205v36.764H141V2451.8H156.38v13.779h9.2v-36.764Z"/>
      <path id="Path_12" data-name="Path 12" class="cls-3" d="M347.73,2448.344V2428.81h9.2v36.764h-5.02l-19.569-19.6v19.6H323.14V2428.81h5.021Z"/>
    </g>
  </g>
</svg>
