<svg xmlns="http://www.w3.org/2000/svg" xmlns:xlink="http://www.w3.org/1999/xlink" width="64.412" height="71.219" viewBox="0 0 64.412 71.219"><defs><clipPath id="a"><rect width="64.412" height="71.219" transform="translate(124.763 114.319)" fill="none"/></clipPath></defs><g transform="translate(-124.763 -114.319)"><g clip-path="url(#a)"><path d="M186.04,114.325c1,0,1.848-.007,2.7,0,.372,0,.439.075.379.459-.134.861-.271,1.724-.453,2.576a23.344,23.344,0,0,1-2.374,6.511,16.568,16.568,0,0,1-11.363,8.408,23.7,23.7,0,0,1-6.627.425c-.422-.025-.842-.1-1.263-.149a.4.4,0,0,1-.386-.3,14.911,14.911,0,0,1-.225-7.831,10.728,10.728,0,0,1,4.353-5.993,18.115,18.115,0,0,1,4.6-2.3,32.394,32.394,0,0,1,6.113-1.413c1.56-.22,3.129-.3,4.548-.4" fill="#65bd84"/><path d="M152.373,130.627a27.44,27.44,0,1,0,27.339,27.49,27.453,27.453,0,0,0-27.339-27.49m-.1,41.116a13.686,13.686,0,1,1,13.7-13.659,13.71,13.71,0,0,1-13.7,13.659" fill="#65bd84"/></g></g></svg>