<svg xmlns="http://www.w3.org/2000/svg" xmlns:xlink="http://www.w3.org/1999/xlink" width="92.335" height="19.538" viewBox="0 0 92.335 19.538">
  <defs>
    <style>
      .cls-1 {
        fill: none;
      }

      .cls-2 {
        clip-path: url(#clip-path);
      }

      .cls-3 {
        fill: #65bd84;
      }

      .cls-4 {
        fill: #fff;
      }
    </style>
    <clipPath id="clip-path">
      <rect id="Rectangle_11" data-name="Rectangle 11" class="cls-1" width="92.335" height="19.538" transform="translate(129.601 38.12)"/>
    </clipPath>
  </defs>
  <g id="Group_14" data-name="Group 14" transform="translate(-129.601 -38.12)">
    <g id="Group_13" data-name="Group 13" class="cls-2">
      <path id="Path_13" data-name="Path 13" class="cls-3" d="M205.574,38.119h.739c.1,0,.121.02.1.126-.037.236-.074.473-.124.707a6.387,6.387,0,0,1-.652,1.788,4.551,4.551,0,0,1-3.119,2.308,6.5,6.5,0,0,1-1.819.116c-.116-.007-.231-.027-.347-.041a.108.108,0,0,1-.106-.081,4.1,4.1,0,0,1-.062-2.15,2.947,2.947,0,0,1,1.2-1.645,4.954,4.954,0,0,1,1.264-.632,8.853,8.853,0,0,1,1.679-.388c.427-.06.858-.082,1.248-.109"/>
      <path id="Path_14" data-name="Path 14" class="cls-3" d="M196.331,42.594a7.533,7.533,0,1,0,7.505,7.546,7.533,7.533,0,0,0-7.505-7.546M196.3,53.88a3.757,3.757,0,1,1,3.76-3.75,3.757,3.757,0,0,1-3.76,3.75"/>
      <path id="Path_15" data-name="Path 15" class="cls-4" d="M155.261,42.593a7.532,7.532,0,1,0,7.523,7.552,7.532,7.532,0,0,0-7.523-7.552m-.01,11.288a3.757,3.757,0,1,1,3.758-3.754,3.757,3.757,0,0,1-3.758,3.754"/>
      <rect id="Rectangle_10" data-name="Rectangle 10" class="cls-4" width="3.775" height="15.078" transform="translate(180.768 42.583)"/>
      <path id="Path_16" data-name="Path 16" class="cls-4" d="M170.827,54.229V42.583h-3.775V57.662h9.475V54.229Z"/>
      <path id="Path_17" data-name="Path 17" class="cls-4" d="M139.686,42.583v5.652h-6.309V42.583H129.6V57.662h3.775V52.01h6.309v5.652h3.775V42.583Z"/>
      <path id="Path_18" data-name="Path 18" class="cls-3" d="M218.162,50.592v-8.01h3.775V57.659h-2.059l-8.026-8.038v8.038h-3.775V42.582h2.059Z"/>
    </g>
  </g>
</svg>
