<svg xmlns="http://www.w3.org/2000/svg" width="77.794" height="60.392" viewBox="0 0 77.794 60.392"><defs><style>.a{fill:#fff;}</style></defs><path class="a" d="M171.043,1119.329a27.848,27.848,0,0,1,6.4-13.69,42.05,42.05,0,0,1,12.283-9.853l-6.142-8.7a53.988,53.988,0,0,0-18.936,16.5,39.065,39.065,0,0,0-7.677,23.415,30.775,30.775,0,0,0,1.407,10.108,16.557,16.557,0,0,0,3.711,6.27,12.8,12.8,0,0,0,4.99,3.2,16.583,16.583,0,0,0,5.246.9,12.45,12.45,0,0,0,9.724-3.966,13.475,13.475,0,0,0,3.583-9.341,14.785,14.785,0,0,0-3.2-9.6,12.914,12.914,0,0,0-8.573-4.734Zm44.783,0a30.468,30.468,0,0,1,6.525-13.69,39.438,39.438,0,0,1,12.412-9.853l-6.4-8.7a54.736,54.736,0,0,0-18.681,16.5,39.065,39.065,0,0,0-7.677,23.415,30.747,30.747,0,0,0,1.408,10.108,16.556,16.556,0,0,0,3.71,6.27,12.808,12.808,0,0,0,4.99,3.2,16.588,16.588,0,0,0,5.246.9,12.451,12.451,0,0,0,9.725-3.966,13.474,13.474,0,0,0,3.582-9.341,14.779,14.779,0,0,0-3.2-9.6,12.914,12.914,0,0,0-8.572-4.734Z" transform="translate(-156.969 -1087.086)"/></svg>