<svg width="173" height="50" viewBox="0 0 173 50" fill="none" xmlns="http://www.w3.org/2000/svg">
<g clip-path="url(#clip0_326_270)">
<path d="M13.1296 44.6337C13.0366 44.4513 12.9518 44.2644 12.85 44.0875C11.5815 41.8842 10.3086 39.683 9.04064 37.4791C7.68131 35.1166 6.32088 32.754 4.96926 30.387C3.87696 28.4739 2.75767 26.5746 1.72427 24.6299C0.858795 23.002 0.42 21.2232 0.16399 19.399C-0.00558192 18.1912 -0.0523794 16.9801 0.0648896 15.7667C0.236664 13.9918 0.636369 12.2699 1.31851 10.6187C2.02268 8.91453 2.979 7.36456 4.17426 5.96604C5.46312 4.45862 6.98431 3.22981 8.6993 2.24145C10.5222 1.19007 12.4855 0.537246 14.5534 0.203371C15.1926 0.100002 15.8444 0.0590969 16.4919 0.0231666C19.0702 -0.120002 21.5312 0.407344 23.8914 1.41284C25.5106 2.1027 26.9866 3.038 28.3162 4.20324C30.0142 5.69131 31.3807 7.44029 32.4003 9.4546C33.1468 10.9288 33.6605 12.4877 33.9435 14.12C33.9919 14.4003 34.0305 14.6827 34.0762 14.9635C34.2265 15.885 33.6396 16.7297 32.7317 16.8955C31.7991 17.0657 30.9314 16.4925 30.7838 15.5545C30.5978 14.3699 30.3533 13.2052 29.9063 12.0886C29.3056 10.5894 28.4583 9.24952 27.399 8.03397C26.2186 6.67912 24.8196 5.61613 23.2214 4.81959C21.3974 3.91083 19.4666 3.44539 17.4229 3.40614C15.6121 3.37132 13.8641 3.63831 12.1799 4.30385C10.7914 4.85275 9.50972 5.58684 8.3618 6.55253C6.03404 8.51101 4.47596 10.9626 3.7718 13.9265C3.06598 16.8982 3.28511 19.8219 4.52221 22.6217C5.00615 23.7173 5.6448 24.746 6.23335 25.7935C6.98376 27.1301 7.75234 28.4567 8.51541 29.7862C9.35171 31.2427 10.1913 32.6971 11.0287 34.1531C11.9118 35.6887 12.7933 37.2248 13.6758 38.761C14.5991 40.369 15.5224 41.9765 16.4457 43.5845C16.6147 43.8791 16.7831 44.1738 16.9549 44.4667C17.0975 44.7094 17.1537 44.7066 17.3001 44.4529C18.1034 43.0616 18.9078 41.6714 19.7083 40.2789C21.154 37.7644 22.5976 35.2487 24.0423 32.7341C25.7705 29.7254 27.5014 26.7183 29.2236 23.7062C29.4234 23.3563 29.5798 22.9804 29.7471 22.6128C29.9503 22.1645 30.2812 21.8815 30.7767 21.866C31.2381 21.8517 31.5629 22.1048 31.8035 22.4918C33.0004 24.4176 33.802 26.4961 34.221 28.7265C34.4825 30.1173 34.581 31.5208 34.4841 32.9287C34.3438 34.9695 33.8785 36.9385 33.0654 38.8196C32.0837 41.0893 30.6589 43.0445 28.8547 44.7188C26.6134 46.7989 23.9856 48.1532 21.018 48.8535C19.4655 49.22 17.8892 49.3853 16.3014 49.2869C12.6424 49.0597 9.32748 47.8862 6.42824 45.5894C4.29208 43.8974 2.61287 41.8422 1.43798 39.3773C0.810346 38.0617 0.371 36.6793 0.074249 35.2531C-0.0898174 34.4637 0.276304 33.6362 0.951289 33.1951C1.56406 32.7944 2.47523 32.8027 3.08195 33.2338C3.50808 33.5362 3.78887 33.9469 3.90283 34.4665C4.18197 35.739 4.59984 36.9623 5.206 38.1176C5.72463 39.1054 6.36383 40.0047 7.09993 40.8439C8.64975 42.6116 10.5503 43.8382 12.7503 44.6193C12.8566 44.6569 12.9711 44.6707 13.0817 44.6956C13.0988 44.6757 13.1153 44.6563 13.1324 44.6364L13.1296 44.6337ZM30.2504 28.9249C30.214 28.9122 30.1777 28.899 30.1419 28.8863L21.0891 44.627C21.1193 44.6552 21.1502 44.6829 21.1805 44.7111C24.3341 43.6901 26.8209 41.7758 28.5585 38.9285C30.4513 35.8263 31.0283 32.4804 30.2504 28.9249Z" fill="white"/>
<path d="M22.0635 19.1799C21.4336 18.9964 20.8093 18.7908 20.1729 18.6338C18.884 18.3154 17.5726 18.3607 16.2612 18.4403C15.9319 18.4602 15.601 18.4718 15.2718 18.4652C14.9321 18.4586 14.7394 18.3032 14.6645 17.9721C14.4383 16.9721 14.4206 15.9672 14.6276 14.9617C14.6777 14.7179 14.8391 14.5886 15.0846 14.5554C18.2013 14.1353 21.2046 14.5615 24.095 15.7903C24.6588 16.0302 25.2011 16.3232 25.7434 16.6106C26.1552 16.829 26.2642 17.0871 26.1982 17.5409C25.9394 19.312 25.2694 20.9062 24.0917 22.2545C22.6052 23.957 20.7427 24.9929 18.4948 25.3069C16.592 25.5722 14.7829 25.2748 13.0976 24.3517C10.842 23.1162 9.25144 21.3109 8.62546 18.7687C7.99782 16.2171 8.18006 13.7439 9.68693 11.5141C11.1547 9.34276 13.1395 7.85469 15.7701 7.4473C18.3384 7.0493 20.7108 7.62916 22.7875 9.23055C23.866 10.0625 24.7309 11.0917 25.3184 12.3382C25.5144 12.7545 25.4714 12.9927 25.0783 13.2205C24.4364 13.5925 23.7807 13.9413 23.1222 14.2823C22.8332 14.4321 22.6328 14.3548 22.4285 14.0458C22.2314 13.7478 22.064 13.43 21.8625 13.1353C20.8468 11.65 19.4461 10.8612 17.6464 10.7584C16.3294 10.6832 15.0896 10.9187 14.0413 11.733C12.3693 13.0314 11.4922 14.7318 11.6943 16.9058C11.8297 18.3635 12.4326 19.6034 13.5216 20.563C14.746 21.642 16.1945 22.129 17.8346 21.9759C19.2276 21.846 20.3925 21.2401 21.3566 20.2413C21.6324 19.9549 21.8537 19.6161 22.1004 19.301C22.0883 19.2606 22.0761 19.2203 22.064 19.1799H22.0635Z" fill="white"/>
</g>
<path d="M53.4216 32.9076C51.7526 32.9076 50.3111 32.5434 49.0972 31.8151C47.8985 31.0716 46.9881 30.055 46.366 28.7652C45.7439 27.4755 45.4328 26.0188 45.4328 24.3953C45.4328 22.529 45.7894 20.9282 46.5026 19.5929C47.2309 18.2576 48.2551 17.2486 49.5752 16.5658C50.8953 15.883 52.4354 15.5416 54.1955 15.5416C55.8494 15.5416 57.7081 15.7768 59.7717 16.2472L59.5214 20.4805H57.2226L56.6081 17.5672C56.4563 17.4155 56.168 17.279 55.7432 17.1576C55.3183 17.021 54.7645 16.9527 54.0817 16.9527C52.5947 16.9527 51.4263 17.5597 50.5766 18.7735C49.7269 19.9722 49.3021 21.7096 49.3021 23.9856C49.3021 26.2161 49.6662 28.0217 50.3945 29.4025C51.1229 30.7681 52.2305 31.4509 53.7175 31.4509C54.3245 31.4509 54.8935 31.3751 55.4245 31.2233C55.9556 31.0716 56.3577 30.8743 56.6308 30.6316V25.7381L54.2183 25.5105V23.9856H61.1373V25.5105L59.9311 25.7154V31.7468C59.6124 31.762 59.0358 31.891 58.2013 32.1337C57.2302 32.3917 56.3956 32.5814 55.6977 32.7027C55.0149 32.8393 54.2562 32.9076 53.4216 32.9076ZM72.862 32.8848C72.3613 32.8848 71.9971 32.7786 71.7695 32.5662C71.5419 32.3538 71.4281 32.0351 71.4281 31.6103V30.9957C71.0184 31.4965 70.4419 31.9441 69.6984 32.3386C68.9549 32.7179 68.2114 32.9076 67.4679 32.9076C66.0112 32.9076 64.9718 32.5358 64.3497 31.7923C63.7276 31.0337 63.4166 29.7894 63.4166 28.0597V21.6413L62.2785 21.3227V20.0253L66.1478 19.7295H66.1705L66.6257 20.0481V28.0597C66.6257 29.1673 66.7623 29.9412 67.0354 30.3812C67.3085 30.8212 67.8169 31.0413 68.5603 31.0413C69.4556 31.0413 70.2901 30.6923 71.064 29.9943V21.6413L69.539 21.2999V20.0253L73.6586 19.7295H73.7041L74.2504 20.0481V31.2461H75.525L75.5022 32.5434C75.4415 32.5586 75.1608 32.6193 74.6601 32.7255C74.1593 32.8317 73.56 32.8848 72.862 32.8848ZM79.8419 17.9314C79.2957 17.9314 78.8632 17.7721 78.5446 17.4534C78.2259 17.1348 78.0666 16.7251 78.0666 16.2244C78.0666 15.6478 78.2487 15.1698 78.6129 14.7905C78.977 14.4112 79.4626 14.2215 80.0695 14.2215C80.6765 14.2215 81.1392 14.3884 81.4579 14.7222C81.7765 15.0409 81.9358 15.443 81.9358 15.9285C81.9358 16.5355 81.7538 17.021 81.3896 17.3852C81.0254 17.7493 80.5171 17.9314 79.8647 17.9314H79.8419ZM78.6356 22.1648L77.0197 21.7324V20.2074L81.1848 19.7067H81.2303L81.8676 20.1619V31.1095L83.3925 31.2916V32.6572H77.0424V31.2916L78.6356 31.0868V22.1648ZM89.7808 32.9076C88.8401 32.9076 87.9979 32.6876 87.2544 32.2475C86.5109 31.7923 85.9192 31.0944 85.4791 30.1536C85.0391 29.2129 84.8191 28.0369 84.8191 26.6258C84.8191 25.3512 85.077 24.1905 85.5929 23.1435C86.124 22.0813 86.8979 21.2392 87.9145 20.6171C88.9311 19.995 90.1526 19.6839 91.5789 19.6839C92.1555 19.6839 92.7017 19.7446 93.2176 19.866V16.0196L90.9871 15.7009V14.4491L95.6757 13.9939H95.744L96.3813 14.4719V31.2689H97.6103V32.5662C96.5178 32.7938 95.615 32.9076 94.9018 32.9076C94.4163 32.9076 94.0673 32.8241 93.8549 32.6572C93.6576 32.5055 93.559 32.1944 93.559 31.7241V31.0868C93.1645 31.6178 92.6258 32.0579 91.943 32.4069C91.2602 32.7407 90.5395 32.9076 89.7808 32.9076ZM90.9643 31.0185C91.4651 31.0185 91.9051 30.9199 92.2844 30.7226C92.6789 30.5102 92.99 30.2598 93.2176 29.9715V21.6868C93.1114 21.5351 92.8838 21.4061 92.5348 21.2999C92.201 21.1937 91.8368 21.1406 91.4423 21.1406C90.4712 21.1406 89.6898 21.5654 89.098 22.4152C88.5214 23.2497 88.2331 24.5925 88.2331 26.4437C88.2331 27.9914 88.4835 29.1446 88.9842 29.9032C89.4849 30.6467 90.145 31.0185 90.9643 31.0185ZM105.007 32.9076C103.004 32.9076 101.509 32.3234 100.523 31.1551C99.552 29.9715 99.0664 28.3631 99.0664 26.3299C99.0664 24.9643 99.3168 23.7808 99.8175 22.7793C100.333 21.7779 101.054 21.0116 101.98 20.4805C102.905 19.9495 103.975 19.6839 105.189 19.6839C106.706 19.6839 107.875 20.086 108.694 20.8902C109.513 21.6792 109.938 22.8097 109.969 24.2815C109.969 25.2829 109.908 26.0264 109.786 26.512H102.389C102.45 27.8928 102.776 28.9701 103.368 29.7439C103.96 30.5026 104.802 30.8819 105.894 30.8819C106.486 30.8819 107.093 30.7833 107.715 30.5861C108.353 30.3888 108.853 30.1536 109.217 29.8805L109.786 31.1323C109.377 31.5723 108.709 31.982 107.784 32.3613C106.873 32.7255 105.948 32.9076 105.007 32.9076ZM106.782 25.1464C106.812 24.7215 106.828 24.3953 106.828 24.1677C106.828 22.1496 106.152 21.1406 104.802 21.1406C104.058 21.1406 103.482 21.4365 103.072 22.0282C102.663 22.62 102.435 23.6594 102.389 25.1464H106.782ZM117.52 32.9076C116.701 32.9076 115.965 32.8393 115.313 32.7027C114.66 32.5662 113.932 32.3841 113.128 32.1565C112.597 32.0048 112.24 31.9213 112.058 31.9061L112.263 27.6955H114.106L114.607 30.6316C114.804 30.844 115.153 31.0337 115.654 31.2006C116.17 31.3675 116.754 31.4509 117.407 31.4509C118.423 31.4509 119.182 31.2309 119.683 30.7909C120.199 30.3357 120.457 29.706 120.457 28.9018C120.457 28.3707 120.305 27.9155 120.001 27.5362C119.698 27.1417 119.281 26.7927 118.75 26.4892C118.218 26.1706 117.49 25.8064 116.565 25.3967C115.305 24.8201 114.258 24.1373 113.424 23.3483C112.604 22.5441 112.195 21.4592 112.195 20.0936C112.195 19.2439 112.415 18.4777 112.855 17.7948C113.295 17.0969 113.947 16.5506 114.812 16.1561C115.692 15.7464 116.762 15.5416 118.021 15.5416C118.765 15.5416 119.417 15.5947 119.979 15.7009C120.555 15.8071 121.177 15.9513 121.845 16.1334C122.239 16.2396 122.535 16.3079 122.733 16.3382L122.596 20.3212H120.775L120.297 17.5217C120.161 17.3852 119.888 17.2562 119.478 17.1348C119.068 16.9982 118.613 16.93 118.112 16.93C117.202 16.93 116.511 17.1424 116.041 17.5672C115.586 17.9769 115.358 18.5308 115.358 19.2287C115.358 19.7902 115.525 20.2757 115.859 20.6854C116.208 21.0951 116.625 21.4441 117.111 21.7324C117.596 22.0055 118.363 22.4 119.41 22.9159C120.259 23.3256 120.988 23.7277 121.595 24.1222C122.201 24.5167 122.725 25.0326 123.165 25.6699C123.605 26.292 123.825 27.0279 123.825 27.8776C123.825 28.7121 123.613 29.5087 123.188 30.2674C122.778 31.0261 122.095 31.6558 121.139 32.1565C120.199 32.6572 118.992 32.9076 117.52 32.9076ZM129.322 32.8621C128.367 32.8621 127.661 32.6421 127.206 32.202C126.751 31.762 126.523 31.064 126.523 30.1081V21.7551H125.044V20.5716C125.165 20.5261 125.385 20.4502 125.704 20.344C126.022 20.2226 126.265 20.124 126.432 20.0481C126.69 19.8508 126.91 19.5094 127.092 19.0239C127.229 18.7053 127.479 17.9162 127.843 16.6568H129.664L129.755 20.0026H133.237V21.7551H129.778V28.1507C129.778 29.0004 129.8 29.5998 129.846 29.9488C129.891 30.2978 129.99 30.5254 130.142 30.6316C130.294 30.7226 130.559 30.7681 130.938 30.7681C131.318 30.7681 131.712 30.7302 132.122 30.6543C132.532 30.5633 132.873 30.4571 133.146 30.3357L133.579 31.6103C133.154 31.9289 132.532 32.2172 131.712 32.4751C130.893 32.7331 130.096 32.8621 129.322 32.8621ZM134.79 26.3527C134.79 24.9264 135.07 23.7125 135.632 22.711C136.208 21.7096 136.975 20.9585 137.93 20.4578C138.886 19.9419 139.926 19.6839 141.049 19.6839C142.96 19.6839 144.432 20.2757 145.464 21.4592C146.511 22.6276 147.034 24.2208 147.034 26.2389C147.034 27.6803 146.746 28.9094 146.17 29.926C145.608 30.9275 144.85 31.6785 143.894 32.1793C142.953 32.6648 141.913 32.9076 140.775 32.9076C138.879 32.9076 137.407 32.3234 136.36 31.1551C135.313 29.9715 134.79 28.3707 134.79 26.3527ZM140.958 31.4282C142.672 31.4282 143.529 29.7743 143.529 26.4665C143.529 24.7367 143.325 23.4242 142.915 22.529C142.505 21.6186 141.838 21.1634 140.912 21.1634C139.152 21.1634 138.272 22.8173 138.272 26.1251C138.272 27.8548 138.484 29.1749 138.909 30.0853C139.349 30.9806 140.032 31.4282 140.958 31.4282ZM149.104 31.3144L150.606 31.1323V22.1648L149.149 21.7551V20.1847L152.677 19.7067H152.745L153.314 20.1619V20.6626L153.246 22.5062H153.314C153.42 22.2027 153.671 21.831 154.065 21.391C154.46 20.9357 154.953 20.5412 155.545 20.2074C156.152 19.8584 156.804 19.6839 157.502 19.6839C157.836 19.6839 158.124 19.7295 158.367 19.8205V23.2345C157.912 22.9159 157.358 22.7566 156.705 22.7566C155.598 22.7566 154.634 23.0524 153.815 23.6442V31.1095L156.455 31.3144V32.6572H149.104V31.3144ZM161.842 38.3245C161.569 38.3245 161.273 38.3017 160.955 38.2562C160.651 38.2107 160.431 38.1576 160.295 38.0969V35.6616C160.401 35.7223 160.613 35.783 160.932 35.8436C161.251 35.9043 161.539 35.9347 161.797 35.9347C162.556 35.9347 163.178 35.6843 163.663 35.1836C164.164 34.6829 164.627 33.8408 165.052 32.6572H163.823L159.544 21.6186L158.519 21.3227V20.0026H164.779V21.3227L163.117 21.5958L165.143 27.9004L165.962 30.5861L166.668 27.9004L168.534 21.5958L167.1 21.3227V20.0026H172.039V21.3227L170.924 21.5958C170.089 24.1449 169.262 26.603 168.443 28.9701C167.624 31.3371 167.146 32.6648 167.009 32.9531C166.523 34.2277 166.061 35.2443 165.621 36.003C165.181 36.7616 164.657 37.3382 164.05 37.7327C163.443 38.1272 162.707 38.3245 161.842 38.3245Z" fill="white"/>
<defs>
<clipPath id="clip0_326_270">
<rect width="34.5207" height="49.3149" fill="white"/>
</clipPath>
</defs>
</svg>
